<svg width="35" height="18" viewBox="0 0 35 18" fill="none" xmlns="http://www.w3.org/2000/svg">
  <rect x="0.5" y="0.5" width="34" height="17" rx="4.5" fill="white" stroke="#5D5FEF" />
  <path
    d="M12.9844 8.27344C13.1146 8.27344 13.2396 8.29948 13.3594 8.35156C13.4792 8.40365 13.5833 8.47396 13.6719 8.5625C13.7604 8.65104 13.8307 8.75521 13.8828 8.875C13.9349 8.99479 13.9609 9.11979 13.9609 9.25C13.9609 9.38021 13.9349 9.50521 13.8828 9.625C13.8359 9.73958 13.7682 9.84375 13.6797 9.9375C13.5911 10.026 13.487 10.0964 13.3672 10.1484C13.2474 10.2005 13.1198 10.2266 12.9844 10.2266C12.849 10.2266 12.7214 10.2005 12.6016 10.1484C12.4818 10.1016 12.3776 10.0339 12.2891 9.94531C12.2005 9.85677 12.1302 9.7526 12.0781 9.63281C12.0312 9.51302 12.0078 9.38542 12.0078 9.25C12.0078 9.11458 12.0339 8.98698 12.0859 8.86719C12.138 8.7474 12.2083 8.64323 12.2969 8.55469C12.3854 8.46615 12.487 8.39844 12.6016 8.35156C12.7214 8.29948 12.849 8.27344 12.9844 8.27344ZM17.5 8.27344C17.6302 8.27344 17.7552 8.29948 17.875 8.35156C17.9948 8.40365 18.099 8.47396 18.1875 8.5625C18.276 8.65104 18.3464 8.75521 18.3984 8.875C18.4505 8.99479 18.4766 9.11979 18.4766 9.25C18.4766 9.38021 18.4505 9.50521 18.3984 9.625C18.3516 9.73958 18.2839 9.84375 18.1953 9.9375C18.1068 10.026 18.0026 10.0964 17.8828 10.1484C17.763 10.2005 17.6354 10.2266 17.5 10.2266C17.3646 10.2266 17.237 10.2005 17.1172 10.1484C16.9974 10.1016 16.8932 10.0339 16.8047 9.94531C16.7161 9.85677 16.6458 9.7526 16.5938 9.63281C16.5469 9.51302 16.5234 9.38542 16.5234 9.25C16.5234 9.11458 16.5495 8.98698 16.6016 8.86719C16.6536 8.7474 16.724 8.64323 16.8125 8.55469C16.901 8.46615 17.0026 8.39844 17.1172 8.35156C17.237 8.29948 17.3646 8.27344 17.5 8.27344ZM22.0156 8.27344C22.1458 8.27344 22.2708 8.29948 22.3906 8.35156C22.5104 8.40365 22.6146 8.47396 22.7031 8.5625C22.7917 8.65104 22.862 8.75521 22.9141 8.875C22.9661 8.99479 22.9922 9.11979 22.9922 9.25C22.9922 9.38021 22.9661 9.50521 22.9141 9.625C22.8672 9.73958 22.7995 9.84375 22.7109 9.9375C22.6224 10.026 22.5182 10.0964 22.3984 10.1484C22.2786 10.2005 22.151 10.2266 22.0156 10.2266C21.8802 10.2266 21.7526 10.2005 21.6328 10.1484C21.513 10.1016 21.4089 10.0339 21.3203 9.94531C21.2318 9.85677 21.1615 9.7526 21.1094 9.63281C21.0625 9.51302 21.0391 9.38542 21.0391 9.25C21.0391 9.11458 21.0651 8.98698 21.1172 8.86719C21.1693 8.7474 21.2396 8.64323 21.3281 8.55469C21.4167 8.46615 21.5182 8.39844 21.6328 8.35156C21.7526 8.29948 21.8802 8.27344 22.0156 8.27344Z"
    fill="white" />
  <path
    d="M13.8828 9.625L12.9657 9.22627L12.9614 9.23627L12.9573 9.24637L13.8828 9.625ZM13.6797 9.9375L14.3868 10.6446L14.3969 10.6345L14.4067 10.6241L13.6797 9.9375ZM13.3672 10.1484L12.9685 9.23137L13.3672 10.1484ZM12.6016 10.1484L13.0003 9.23137L12.9833 9.22396L12.966 9.21719L12.6016 10.1484ZM12.0781 9.63281L11.1469 9.99721L11.1537 10.0145L11.1611 10.0315L12.0781 9.63281ZM12.6016 8.35156L12.9802 9.27711L12.9903 9.27298L13.0003 9.26863L12.6016 8.35156ZM12.9844 9.27344C12.9823 9.27344 12.9777 9.27318 12.9718 9.27195C12.9659 9.27072 12.9619 9.2692 12.9606 9.26863L13.7581 7.43449C13.5129 7.32789 13.2522 7.27344 12.9844 7.27344V9.27344ZM12.9606 9.26863C12.9666 9.27121 12.9685 9.27264 12.9679 9.27221C12.9672 9.27173 12.9659 9.27071 12.9648 9.26961L14.379 7.85539C14.1979 7.67433 13.9879 7.5344 13.7581 7.43449L12.9606 9.26863ZM12.9648 9.26961C12.9637 9.2685 12.9626 9.26721 12.9622 9.2665C12.9617 9.26587 12.9632 9.2678 12.9657 9.27373L14.7999 8.47627C14.7 8.24648 14.56 8.03646 14.379 7.85539L12.9648 9.26961ZM12.9657 9.27373C12.9652 9.27243 12.9637 9.26844 12.9624 9.26255C12.9612 9.25665 12.9609 9.25206 12.9609 9.25H14.9609C14.9609 8.98215 14.9065 8.72146 14.7999 8.47627L12.9657 9.27373ZM12.9609 9.25C12.9609 9.24794 12.9612 9.24335 12.9624 9.23745C12.9637 9.23156 12.9652 9.22757 12.9657 9.22627L14.7999 10.0237C14.9065 9.77854 14.9609 9.51785 14.9609 9.25H12.9609ZM12.9573 9.24637C12.9574 9.24603 12.9576 9.24553 12.9579 9.24498C12.9581 9.24472 12.9582 9.2445 12.9583 9.24433C12.9583 9.24425 12.9584 9.24419 12.9584 9.24414C12.9584 9.24409 12.9584 9.24407 12.9584 9.24407C12.9584 9.24408 12.9584 9.24411 12.9584 9.24416C12.9583 9.24422 12.9583 9.24431 12.9582 9.24443C12.958 9.24467 12.9577 9.24506 12.9573 9.24559C12.9565 9.24664 12.955 9.24841 12.9527 9.25088L14.4067 10.6241C14.5763 10.4446 14.7129 10.237 14.8084 10.0036L12.9573 9.24637ZM12.9726 9.23039C12.9737 9.22929 12.975 9.22827 12.9757 9.22779C12.9763 9.22736 12.9744 9.22879 12.9685 9.23137L13.7659 11.0655C13.9957 10.9656 14.2057 10.8257 14.3868 10.6446L12.9726 9.23039ZM12.9685 9.23137C12.9723 9.22972 12.977 9.22818 12.9817 9.22723C12.9862 9.2263 12.9876 9.22656 12.9844 9.22656V11.2266C13.2518 11.2266 13.5157 11.1743 13.7659 11.0655L12.9685 9.23137ZM12.9844 9.22656C12.9812 9.22656 12.9825 9.2263 12.9871 9.22723C12.9917 9.22818 12.9965 9.22972 13.0003 9.23137L12.2028 11.0655C12.4531 11.1743 12.7169 11.2266 12.9844 11.2266V9.22656ZM12.966 9.21719C12.967 9.21761 12.9718 9.21965 12.9786 9.22406C12.9854 9.22851 12.9915 9.23356 12.9962 9.23821L11.582 10.6524C11.7707 10.8412 11.9925 10.9839 12.2372 11.0797L12.966 9.21719ZM12.9962 9.23821C12.9973 9.23931 12.9983 9.2406 12.9988 9.24131C12.9992 9.24195 12.9978 9.24002 12.9952 9.23409L11.1611 10.0315C11.261 10.2613 11.4009 10.4714 11.582 10.6524L12.9962 9.23821ZM13.0094 9.26841C13.0093 9.26829 13.0093 9.26822 13.0093 9.26812C13.0092 9.26801 13.0091 9.26756 13.0089 9.26661C13.0086 9.26495 13.0078 9.25976 13.0078 9.25H11.0078C11.0078 9.50345 11.0522 9.75526 11.1469 9.99721L13.0094 9.26841ZM13.0078 9.25C13.0078 9.24679 13.0081 9.24813 13.0071 9.25269C13.0062 9.25736 13.0047 9.26211 13.003 9.26591L11.1689 8.46846C11.0601 8.7187 11.0078 8.98254 11.0078 9.25H13.0078ZM13.003 9.26591C13.0056 9.25998 13.007 9.25805 13.0066 9.25869C13.0061 9.2594 13.0051 9.26069 13.004 9.26179L11.5898 7.84758C11.4087 8.02865 11.2688 8.23866 11.1689 8.46846L13.003 9.26591ZM13.004 9.26179C13.0029 9.26288 12.9996 9.26594 12.9942 9.26955C12.9887 9.27317 12.9837 9.27568 12.9802 9.27711L12.2229 7.42602C11.984 7.52376 11.7711 7.66624 11.5898 7.84758L13.004 9.26179ZM13.0003 9.26863C12.9965 9.27028 12.9917 9.27182 12.9871 9.27277C12.9825 9.2737 12.9812 9.27344 12.9844 9.27344V7.27344C12.7169 7.27344 12.4531 7.32569 12.2028 7.43449L13.0003 9.26863ZM18.3984 9.625L17.4814 9.22627L17.477 9.23627L17.4729 9.24637L18.3984 9.625ZM18.1953 9.9375L18.9024 10.6446L18.9125 10.6345L18.9223 10.6241L18.1953 9.9375ZM17.8828 10.1484L17.4841 9.23137L17.8828 10.1484ZM17.1172 10.1484L17.5159 9.23137L17.4989 9.22396L17.4816 9.21719L17.1172 10.1484ZM16.5938 9.63281L15.6625 9.99721L15.6693 10.0145L15.6767 10.0315L16.5938 9.63281ZM17.1172 8.35156L17.4958 9.27711L17.5059 9.27298L17.5159 9.26863L17.1172 8.35156ZM17.5 9.27344C17.4979 9.27344 17.4934 9.27318 17.4875 9.27195C17.4816 9.27072 17.4776 9.2692 17.4763 9.26863L18.2737 7.43449C18.0285 7.32789 17.7678 7.27344 17.5 7.27344V9.27344ZM17.4763 9.26863C17.4822 9.27121 17.4841 9.27264 17.4835 9.27221C17.4828 9.27173 17.4815 9.27071 17.4804 9.26961L18.8946 7.85539C18.7135 7.67433 18.5035 7.5344 18.2737 7.43449L17.4763 9.26863ZM17.4804 9.26961C17.4793 9.2685 17.4783 9.26721 17.4778 9.2665C17.4774 9.26587 17.4788 9.2678 17.4814 9.27373L19.3155 8.47627C19.2156 8.24648 19.0757 8.03646 18.8946 7.85539L17.4804 9.26961ZM17.4814 9.27373C17.4808 9.27243 17.4793 9.26844 17.4781 9.26255C17.4768 9.25665 17.4766 9.25206 17.4766 9.25H19.4766C19.4766 8.98215 19.4221 8.72146 19.3155 8.47627L17.4814 9.27373ZM17.4766 9.25C17.4766 9.24794 17.4768 9.24335 17.4781 9.23745C17.4793 9.23156 17.4808 9.22757 17.4814 9.22627L19.3155 10.0237C19.4221 9.77854 19.4766 9.51785 19.4766 9.25H17.4766ZM17.4729 9.24637C17.473 9.24603 17.4733 9.24553 17.4735 9.24498C17.4737 9.24472 17.4738 9.2445 17.4739 9.24433C17.4739 9.24425 17.474 9.24419 17.474 9.24414C17.474 9.24409 17.4741 9.24407 17.4741 9.24407C17.4741 9.24408 17.474 9.24411 17.474 9.24416C17.474 9.24422 17.4739 9.24431 17.4738 9.24443C17.4736 9.24467 17.4734 9.24506 17.4729 9.24559C17.4721 9.24664 17.4706 9.24841 17.4683 9.25088L18.9223 10.6241C19.0919 10.4446 19.2285 10.237 19.324 10.0036L17.4729 9.24637ZM17.4882 9.23039C17.4893 9.22929 17.4906 9.22827 17.4913 9.22779C17.4919 9.22736 17.49 9.22879 17.4841 9.23137L18.2815 11.0655C18.5113 10.9656 18.7214 10.8257 18.9024 10.6446L17.4882 9.23039ZM17.4841 9.23137C17.4879 9.22972 17.4926 9.22818 17.4973 9.22723C17.5019 9.2263 17.5032 9.22656 17.5 9.22656V11.2266C17.7675 11.2266 18.0313 11.1743 18.2815 11.0655L17.4841 9.23137ZM17.5 9.22656C17.4968 9.22656 17.4981 9.2263 17.5027 9.22723C17.5074 9.22818 17.5121 9.22972 17.5159 9.23137L16.7185 11.0655C16.9687 11.1743 17.2325 11.2266 17.5 11.2266V9.22656ZM17.4816 9.21719C17.4826 9.21761 17.4874 9.21965 17.4942 9.22406C17.5011 9.22851 17.5071 9.23356 17.5118 9.23821L16.0976 10.6524C16.2864 10.8412 16.5081 10.9839 16.7528 11.0797L17.4816 9.21719ZM17.5118 9.23821C17.5129 9.23931 17.5139 9.2406 17.5144 9.24131C17.5148 9.24195 17.5134 9.24002 17.5108 9.23409L15.6767 10.0315C15.7766 10.2613 15.9165 10.4714 16.0976 10.6524L17.5118 9.23821ZM17.525 9.26841C17.5249 9.26829 17.5249 9.26822 17.5249 9.26812C17.5249 9.26801 17.5247 9.26756 17.5246 9.26661C17.5243 9.26495 17.5234 9.25976 17.5234 9.25H15.5234C15.5234 9.50345 15.5678 9.75526 15.6625 9.99721L17.525 9.26841ZM17.5234 9.25C17.5234 9.24679 17.5237 9.24813 17.5228 9.25269C17.5218 9.25736 17.5203 9.26211 17.5186 9.26591L15.6845 8.46846C15.5757 8.7187 15.5234 8.98254 15.5234 9.25H17.5234ZM17.5186 9.26591C17.5212 9.25998 17.5226 9.25805 17.5222 9.25869C17.5217 9.2594 17.5207 9.26069 17.5196 9.26179L16.1054 7.84758C15.9243 8.02865 15.7844 8.23866 15.6845 8.46846L17.5186 9.26591ZM17.5196 9.26179C17.5185 9.26288 17.5152 9.26594 17.5098 9.26955C17.5043 9.27317 17.4993 9.27568 17.4958 9.27711L16.7386 7.42602C16.4996 7.52376 16.2867 7.66624 16.1054 7.84758L17.5196 9.26179ZM17.5159 9.26863C17.5121 9.27028 17.5074 9.27182 17.5027 9.27277C17.4981 9.2737 17.4968 9.27344 17.5 9.27344V7.27344C17.2325 7.27344 16.9687 7.32569 16.7185 7.43449L17.5159 9.26863ZM22.9141 9.625L21.997 9.22627L21.9926 9.23627L21.9885 9.24637L22.9141 9.625ZM22.7109 9.9375L23.418 10.6446L23.4281 10.6345L23.438 10.6241L22.7109 9.9375ZM22.3984 10.1484L21.9997 9.23137L22.3984 10.1484ZM21.6328 10.1484L22.0315 9.23137L22.0145 9.22396L21.9972 9.21719L21.6328 10.1484ZM21.1094 9.63281L20.1781 9.99721L20.1849 10.0145L20.1923 10.0315L21.1094 9.63281ZM21.6328 8.35156L22.0114 9.27711L22.0215 9.27298L22.0315 9.26863L21.6328 8.35156ZM22.0156 9.27344C22.0136 9.27344 22.009 9.27318 22.0031 9.27195C21.9972 9.27072 21.9932 9.2692 21.9919 9.26863L22.7894 7.43449C22.5442 7.32789 22.2835 7.27344 22.0156 7.27344V9.27344ZM21.9919 9.26863C21.9978 9.27121 21.9998 9.27264 21.9991 9.27221C21.9984 9.27173 21.9971 9.27071 21.996 9.26961L23.4102 7.85539C23.2292 7.67433 23.0191 7.5344 22.7894 7.43449L21.9919 9.26863ZM21.996 9.26961C21.9949 9.2685 21.9939 9.26721 21.9934 9.2665C21.993 9.26587 21.9944 9.2678 21.997 9.27373L23.8311 8.47627C23.7312 8.24648 23.5913 8.03646 23.4102 7.85539L21.996 9.26961ZM21.997 9.27373C21.9964 9.27243 21.9949 9.26844 21.9937 9.26255C21.9924 9.25665 21.9922 9.25206 21.9922 9.25H23.9922C23.9922 8.98215 23.9377 8.72146 23.8311 8.47627L21.997 9.27373ZM21.9922 9.25C21.9922 9.24794 21.9924 9.24335 21.9937 9.23745C21.9949 9.23156 21.9964 9.22757 21.997 9.22627L23.8311 10.0237C23.9377 9.77854 23.9922 9.51785 23.9922 9.25H21.9922ZM21.9885 9.24637C21.9887 9.24603 21.9889 9.24553 21.9892 9.24498C21.9893 9.24472 21.9894 9.2445 21.9895 9.24433C21.9896 9.24425 21.9896 9.24419 21.9896 9.24414C21.9897 9.24409 21.9897 9.24407 21.9897 9.24407C21.9897 9.24408 21.9897 9.24411 21.9896 9.24416C21.9896 9.24422 21.9895 9.24431 21.9894 9.24443C21.9893 9.24467 21.989 9.24506 21.9886 9.24559C21.9877 9.24664 21.9862 9.24841 21.9839 9.25088L23.438 10.6241C23.6075 10.4446 23.7442 10.237 23.8396 10.0036L21.9885 9.24637ZM22.0038 9.23039C22.0049 9.22929 22.0062 9.22827 22.0069 9.22779C22.0076 9.22736 22.0056 9.22879 21.9997 9.23137L22.7972 11.0655C23.027 10.9656 23.237 10.8257 23.418 10.6446L22.0038 9.23039ZM21.9997 9.23137C22.0035 9.22972 22.0083 9.22818 22.0129 9.22723C22.0175 9.2263 22.0188 9.22656 22.0156 9.22656V11.2266C22.2831 11.2266 22.5469 11.1743 22.7972 11.0655L21.9997 9.23137ZM22.0156 9.22656C22.0124 9.22656 22.0138 9.2263 22.0183 9.22723C22.023 9.22818 22.0277 9.22972 22.0315 9.23137L21.2341 11.0655C21.4843 11.1743 21.7482 11.2266 22.0156 11.2266V9.22656ZM21.9972 9.21719C21.9983 9.21761 22.003 9.21965 22.0098 9.22406C22.0167 9.22851 22.0228 9.23356 22.0274 9.23821L20.6132 10.6524C20.802 10.8412 21.0237 10.9839 21.2684 11.0797L21.9972 9.21719ZM22.0274 9.23821C22.0285 9.23931 22.0295 9.2406 22.03 9.24131C22.0305 9.24195 22.029 9.24002 22.0264 9.23409L20.1923 10.0315C20.2922 10.2613 20.4321 10.4714 20.6132 10.6524L22.0274 9.23821ZM22.0406 9.26841C22.0406 9.26829 22.0405 9.26822 22.0405 9.26812C22.0405 9.26801 22.0404 9.26756 22.0402 9.26661C22.0399 9.26495 22.0391 9.25976 22.0391 9.25H20.0391C20.0391 9.50345 20.0835 9.75526 20.1781 9.99721L22.0406 9.26841ZM22.0391 9.25C22.0391 9.24679 22.0393 9.24813 22.0384 9.25269C22.0374 9.25736 22.0359 9.26211 22.0343 9.26591L20.2001 8.46846C20.0913 8.7187 20.0391 8.98254 20.0391 9.25H22.0391ZM22.0343 9.26591C22.0368 9.25998 22.0383 9.25805 22.0378 9.25869C22.0374 9.2594 22.0363 9.26069 22.0352 9.26179L20.621 7.84758C20.44 8.02865 20.3 8.23866 20.2001 8.46846L22.0343 9.26591ZM22.0352 9.26179C22.0341 9.26288 22.0308 9.26594 22.0254 9.26955C22.02 9.27317 22.0149 9.27568 22.0114 9.27711L21.2542 7.42602C21.0153 7.52376 20.8024 7.66624 20.621 7.84758L22.0352 9.26179ZM22.0315 9.26863C22.0277 9.27028 22.023 9.27182 22.0183 9.27277C22.0138 9.2737 22.0124 9.27344 22.0156 9.27344V7.27344C21.7482 7.27344 21.4843 7.32569 21.2341 7.43449L22.0315 9.26863Z"
    fill="#5D5FEF" />
</svg>